<?xml version="1.0" encoding="UTF-8" standalone="no"?>
<svg xmlns="http://www.w3.org/2000/svg" width="24" height="24" viewBox="0 0 24 24" fill="none">
    <!-- Monochrome version of the icon for mobile -->
    <path d="M21 11.5a8.38 8.38 0 0 1-.9 3.8 8.5 8.5 0 0 1-7.6 4.7 8.38 8.38 0 0 1-3.8-.9L3 21l1.9-5.7a8.38 8.38 0 0 1-.9-3.8 8.5 8.5 0 0 1 4.7-7.6 8.38 8.38 0 0 1 3.8-.9h.5a8.48 8.48 0 0 1 8 8v.5z" fill="#6c757d" stroke="none"/>
    <!-- AI symbol (simplified) -->
    <circle cx="9" cy="11" r="1" fill="#fff"/>
    <circle cx="15" cy="11" r="1" fill="#fff"/>
    <path d="M9 11h6" stroke="#fff" stroke-width="1"/>
    <path d="M10 14.5c1.5 1 3.5 1 5 0" stroke="#fff" stroke-width="1" fill="none"/>
</svg>