<?xml version="1.0" encoding="UTF-8" standalone="no"?>
<svg xmlns="http://www.w3.org/2000/svg" width="24" height="24" viewBox="0 0 24 24" fill="none">
  <!-- Modern AI chat bubble with gradient and glow effect -->
  <defs>
    <!-- Main gradient -->
    <linearGradient id="mainGradient" x1="0%" y1="0%" x2="100%" y2="100%">
      <stop offset="0%" style="stop-color:#667eea;stop-opacity:1" />
      <stop offset="50%" style="stop-color:#9f7aea;stop-opacity:1" />
      <stop offset="100%" style="stop-color:#764ba2;stop-opacity:1" />
    </linearGradient>
    
    <!-- Glow gradient -->
    <radialGradient id="glowGradient" cx="50%" cy="50%" r="50%">
      <stop offset="0%" style="stop-color:#667eea;stop-opacity:0.3" />
      <stop offset="100%" style="stop-color:#764ba2;stop-opacity:0" />
    </radialGradient>
    
    <!-- Shadow filter -->
    <filter id="softShadow" x="-50%" y="-50%" width="200%" height="200%">
      <feGaussianBlur in="SourceAlpha" stdDeviation="1.5"/>
      <feOffset dx="0" dy="2" result="offsetblur"/>
      <feFlood flood-color="#000000" flood-opacity="0.15"/>
      <feComposite in2="offsetblur" operator="in"/>
      <feMerge>
        <feMergeNode/>
        <feMergeNode in="SourceGraphic"/>
      </feMerge>
    </filter>
    
    <!-- Inner glow -->
    <filter id="innerGlow">
      <feGaussianBlur stdDeviation="1" result="coloredBlur"/>
      <feMerge>
        <feMergeNode in="coloredBlur"/>
        <feMergeNode in="SourceGraphic"/>
      </feMerge>
    </filter>
  </defs>
  
  <!-- Background glow -->
  <circle cx="12" cy="11" r="10" fill="url(#glowGradient)" opacity="0.5"/>
  
  <!-- Main chat bubble -->
  <path d="M19.5 2.5h-15C3.12 2.5 2 3.62 2 5v10c0 1.38 1.12 2.5 2.5 2.5h2.5l3 3.5c.2.23.5.37.8.37s.6-.14.8-.37l3-3.5h4.9c1.38 0 2.5-1.12 2.5-2.5V5c0-1.38-1.12-2.5-2.5-2.5z" 
        fill="url(#mainGradient)" 
        filter="url(#softShadow)"
        stroke="rgba(255,255,255,0.2)"
        stroke-width="0.5"/>
  
  <!-- AI Brain Network -->
  <g transform="translate(12, 10)" filter="url(#innerGlow)">
    <!-- Central core -->
    <circle cx="0" cy="0" r="2" fill="#ffffff" opacity="1">
      <animate attributeName="r" values="1.8;2.2;1.8" dur="2s" repeatCount="indefinite"/>
    </circle>
    
    <!-- Neural connections -->
    <g stroke="#ffffff" stroke-width="0.8" fill="none" opacity="0.8">
      <!-- Left connections -->
      <path d="M-2 0 Q-4 -2 -6 -2">
        <animate attributeName="opacity" values="0.8;0.4;0.8" dur="3s" repeatCount="indefinite"/>
      </path>
      <path d="M-2 0 Q-4 2 -6 2">
        <animate attributeName="opacity" values="0.4;0.8;0.4" dur="3s" repeatCount="indefinite"/>
      </path>
      
      <!-- Right connections -->
      <path d="M2 0 Q4 -2 6 -2">
        <animate attributeName="opacity" values="0.6;1;0.6" dur="2.5s" repeatCount="indefinite"/>
      </path>
      <path d="M2 0 Q4 2 6 2">
        <animate attributeName="opacity" values="1;0.6;1" dur="2.5s" repeatCount="indefinite"/>
      </path>
      
      <!-- Top/Bottom connections -->
      <path d="M0 -2 Q-2 -4 -2 -5">
        <animate attributeName="opacity" values="0.7;0.5;0.7" dur="2.8s" repeatCount="indefinite"/>
      </path>
      <path d="M0 -2 Q2 -4 2 -5">
        <animate attributeName="opacity" values="0.5;0.7;0.5" dur="2.8s" repeatCount="indefinite"/>
      </path>
    </g>
    
    <!-- Neural nodes -->
    <g fill="#ffffff">
      <circle cx="-6" cy="-2" r="1" opacity="0.9">
        <animate attributeName="opacity" values="0.9;0.5;0.9" dur="3s" repeatCount="indefinite"/>
      </circle>
      <circle cx="-6" cy="2" r="1" opacity="0.9">
        <animate attributeName="opacity" values="0.5;0.9;0.5" dur="3s" repeatCount="indefinite"/>
      </circle>
      <circle cx="6" cy="-2" r="1" opacity="0.9">
        <animate attributeName="opacity" values="0.7;1;0.7" dur="2.5s" repeatCount="indefinite"/>
      </circle>
      <circle cx="6" cy="2" r="1" opacity="0.9">
        <animate attributeName="opacity" values="1;0.7;1" dur="2.5s" repeatCount="indefinite"/>
      </circle>
      <circle cx="-2" cy="-5" r="0.8" opacity="0.8">
        <animate attributeName="opacity" values="0.8;0.6;0.8" dur="2.8s" repeatCount="indefinite"/>
      </circle>
      <circle cx="2" cy="-5" r="0.8" opacity="0.8">
        <animate attributeName="opacity" values="0.6;0.8;0.6" dur="2.8s" repeatCount="indefinite"/>
      </circle>
    </g>
  </g>
  
  <!-- Sparkle effects -->
  <g fill="#ffffff" opacity="0.6">
    <circle cx="4" cy="4" r="0.5">
      <animate attributeName="opacity" values="0;0.6;0" dur="3s" repeatCount="indefinite"/>
    </circle>
    <circle cx="20" cy="5" r="0.5">
      <animate attributeName="opacity" values="0;0.6;0" dur="3s" begin="1s" repeatCount="indefinite"/>
    </circle>
    <circle cx="18" cy="14" r="0.5">
      <animate attributeName="opacity" values="0;0.6;0" dur="3s" begin="2s" repeatCount="indefinite"/>
    </circle>
  </g>
</svg>