<?xml version="1.0" encoding="UTF-8" standalone="no"?>
<svg xmlns="http://www.w3.org/2000/svg" width="24" height="24" viewBox="0 0 24 24" fill="none">
  <!-- Modern chat bubble with AI symbol -->
  <defs>
    <linearGradient id="gradient1" x1="0%" y1="0%" x2="100%" y2="100%">
      <stop offset="0%" style="stop-color:#667eea;stop-opacity:1" />
      <stop offset="100%" style="stop-color:#764ba2;stop-opacity:1" />
    </linearGradient>
    <filter id="shadow" x="-50%" y="-50%" width="200%" height="200%">
      <feGaussianBlur in="SourceAlpha" stdDeviation="1"/>
      <feOffset dx="0" dy="1" result="offsetblur"/>
      <feFlood flood-color="#000000" flood-opacity="0.1"/>
      <feComposite in2="offsetblur" operator="in"/>
      <feMerge>
        <feMergeNode/>
        <feMergeNode in="SourceGraphic"/>
      </feMerge>
    </filter>
  </defs>
  
  <!-- Chat bubble -->
  <path d="M19 2H5c-1.657 0-3 1.343-3 3v10c0 1.657 1.343 3 3 3h2l3 3 3-3h6c1.657 0 3-1.343 3-3V5c0-1.657-1.343-3-3-3z" 
        fill="url(#gradient1)" 
        filter="url(#shadow)"/>
  
  <!-- AI neural network symbol -->
  <g fill="#ffffff">
    <!-- Central node -->
    <circle cx="12" cy="10" r="1.5" opacity="1"/>
    
    <!-- Left nodes -->
    <circle cx="7" cy="8" r="1" opacity="0.9"/>
    <circle cx="7" cy="12" r="1" opacity="0.9"/>
    
    <!-- Right nodes -->
    <circle cx="17" cy="8" r="1" opacity="0.9"/>
    <circle cx="17" cy="12" r="1" opacity="0.9"/>
    
    <!-- Connections -->
    <path d="M8 8.5l3.5 1M8 11.5l3.5-1M13.5 9.5l3-1M13.5 10.5l3 1" 
          stroke="#ffffff" 
          stroke-width="0.5" 
          opacity="0.7"/>
  </g>
</svg>